<svg width="772" height="140" viewBox="0 0 772 140" fill="none" xmlns="http://www.w3.org/2000/svg">
<g clip-path="url(#clip0_5235_123921)">
<g clip-path="url(#clip1_5235_123921)">
<rect x="772" y="467" width="783.801" height="544.013" transform="rotate(-180 772 467)" fill="#E8E8E9"/>
<path d="M241.783 337.694L205.174 362.289L162.933 374L157.864 365.216L194.473 289.092L223.197 275.624L241.783 337.694Z" fill="#FEF7E4"/>
<path d="M675.5 281.5L790 207L734.621 126.5L713 136L670 163L616.5 193.5L675.5 281.5Z" fill="#FEF7E4"/>
<path d="M442.221 199.102L551.5 82.5L442.221 -0.793488L410.921 18.8623L367.581 62.6705L331.5 102.5L442.221 199.102Z" fill="#FEF7E4"/>
<path d="M108.611 152.044L118.242 142.03L107.407 91.3379L88.7473 38.1422H63.4659L43 131.391L108.611 152.044Z" fill="#FEF7E4"/>
<path d="M626.529 11.5L734.621 108.465L768.977 84.4568L670 -35L626.529 11.5Z" fill="#FEF7E4"/>
<path d="M664.946 414.684L682.422 380.036L687.6 378.147L682.422 368.067L529.02 300.662L508.308 354.208L664.946 414.684Z" fill="#D1ECCD"/>
<path d="M500.34 269.511L614.804 323.149L647 296.5L524.5 251.5L500.34 269.511Z" fill="#D1ECCD"/>
<path d="M380 323.149L330.309 279.244L367.5 228.5L433 287.5L380 323.149Z" fill="#D1ECCD"/>
<path d="M273.205 -32.2781L326.5 13.6975L282.289 60.8521L227.783 16.0553L273.205 -32.2781Z" fill="#D1ECCD"/>
<path d="M294.427 170.486L267.779 242.987L205 273L186 123.5L214 89L294.427 164.592V170.486Z" fill="#D1ECCD"/>
<path fill-rule="evenodd" clip-rule="evenodd" d="M268.435 414.496C267.746 413.227 266.09 412.793 264.834 413.551L176.187 467.051C175.19 467.652 174.747 468.835 175.114 469.915L179.802 483.739C180.242 485.034 179.514 486.428 178.177 486.853L158.816 493.014C157.48 493.439 156.04 492.734 155.601 491.44L153.245 484.494C152.73 482.974 150.88 482.323 149.478 483.17L118.459 501.89C117.265 502.611 115.694 502.257 114.95 501.101L104.173 484.349C103.429 483.192 103.793 481.671 104.987 480.95L142.351 458.4C143.347 457.799 143.791 456.616 143.424 455.536L123.3 396.202C122.825 394.801 121.196 394.114 119.814 394.731L28.3849 435.531C28.2388 435.596 28.0865 435.648 27.9304 435.685L-27.215 448.888C-28.5807 449.215 -29.9616 448.408 -30.2992 447.085L-35.1895 427.924C-35.5271 426.601 -34.6935 425.263 -33.3278 424.936L19.4685 412.296C19.6248 412.259 19.777 412.207 19.9232 412.142L57.4278 395.405C58.3904 394.976 58.9779 394.014 58.9028 392.99L52.5702 306.65C52.4944 305.617 51.7615 304.74 50.7346 304.454L40.3152 301.546L14.3364 297.752C13.2266 297.59 12.1381 298.15 11.6561 299.132L-7.4306 338.001C-8.03485 339.232 -9.55469 339.755 -10.8251 339.169L-17.7264 335.99C-18.9969 335.405 -19.537 333.933 -18.9327 332.702L-2.16718 298.56C-1.43304 297.065 -2.39752 295.308 -4.08777 295.061L-36.5823 290.315C-37.9734 290.112 -38.931 288.855 -38.7213 287.507L-35.6826 267.99C-35.4728 266.642 -34.1751 265.715 -32.7839 265.918L12.0873 272.472C13.0183 272.608 13.9508 272.235 14.5121 271.503L39.3458 239.118C40.1388 238.083 39.9769 236.632 38.9741 235.786L13.3569 214.17C12.187 213.183 10.3851 213.429 9.54352 214.692L-3.85071 234.788C-4.61377 235.932 -6.19049 236.261 -7.37244 235.522L-8.4425 234.853C-9.62445 234.114 -9.96411 232.587 -9.20105 231.442L5.091 209.999C5.77771 208.969 5.57886 207.607 4.62415 206.801L-36.7362 171.9C-37.7969 171.005 -37.9077 169.447 -36.9836 168.419L-36.1469 167.489C-35.2228 166.462 -33.6136 166.354 -32.5529 167.25L7.55927 201.097C8.72931 202.084 10.5311 201.838 11.3727 200.575L21.3796 185.561C21.5316 185.333 21.6437 185.083 21.7114 184.819L34.0916 136.649C34.4254 135.35 33.6295 134.031 32.2979 133.674L-19.6735 119.772C-21.0297 119.409 -21.8253 118.05 -21.4507 116.737L-21.1116 115.547C-20.7371 114.234 -19.3342 113.463 -17.9781 113.826L33.7114 127.653C35.092 128.023 36.5155 127.217 36.8615 125.871L58.2492 42.6526C58.275 42.5525 58.2831 42.4489 58.2735 42.3462C58.2289 41.871 57.8175 41.5071 57.3248 41.5071H-20.6441C-22.051 41.5071 -23.1915 40.4025 -23.1915 39.0399V37.8063C-23.1915 36.4436 -22.051 35.339 -20.6441 35.339H54.8264C56.3243 35.339 57.4989 34.0932 57.3633 32.6483L50.2759 -42.8621C50.2184 -43.4747 49.9266 -44.0445 49.4578 -44.4597L25.9926 -65.2378C24.9542 -66.1572 24.8821 -67.7178 25.8313 -68.7235L39.5819 -83.2912C40.5312 -84.2969 42.1425 -84.3668 43.1808 -83.4474L131.201 -5.50702C132.242 -4.58472 133.859 -4.65839 134.807 -5.67133L161.263 -33.9504C162.214 -34.9676 162.126 -36.5414 161.066 -37.4525L115.431 -76.6776C114.378 -77.582 114.282 -79.1415 115.216 -80.1606L116.062 -81.0833C116.996 -82.1025 118.606 -82.1955 119.658 -81.291L165.382 -41.9897C166.426 -41.0919 168.022 -41.1761 168.96 -42.1785L205.252 -80.972C206.204 -81.9892 206.115 -83.563 205.055 -84.4741L174.657 -110.602C173.605 -111.507 173.509 -113.066 174.443 -114.086L175.288 -115.008C176.222 -116.027 177.832 -116.12 178.884 -115.216L209.371 -89.0113C210.416 -88.1135 212.012 -88.1976 212.95 -89.2L247.852 -126.509C248.797 -127.518 250.408 -127.595 251.45 -126.68L252.394 -125.852C253.437 -124.937 253.516 -123.377 252.572 -122.367L217.748 -85.1435C216.797 -84.1263 216.885 -82.5525 217.945 -81.6414L266.459 -39.9418C267.498 -39.0486 269.085 -39.1266 270.025 -40.1171L313.653 -86.0652C314.605 -87.0682 316.216 -87.1335 317.252 -86.2111L322.877 -81.2007C323.913 -80.2783 323.98 -78.7175 323.028 -77.7145L279.614 -31.9918C278.65 -30.9763 278.733 -29.3922 279.798 -28.4763L323.783 9.33002C324.822 10.2229 326.408 10.1453 327.348 9.15549L376.975 -43.0689C377.976 -44.1224 377.844 -45.7775 376.688 -46.6696L244.595 -148.581C243.495 -149.43 243.314 -150.982 244.19 -152.048L244.984 -153.013C245.86 -154.079 247.463 -154.255 248.563 -153.406L381.296 -50.9999C382.341 -50.1935 383.852 -50.3066 384.757 -51.259L420.932 -89.3271C421.897 -90.3425 421.814 -91.9273 420.748 -92.8434L309.667 -188.322C308.615 -189.227 308.519 -190.786 309.452 -191.805L310.298 -192.728C311.232 -193.747 312.842 -193.84 313.894 -192.935L477.167 -52.596C478.086 -51.8064 479.456 -51.7642 480.424 -52.4955L520.381 -82.6653C521.49 -83.5031 523.091 -83.311 523.956 -82.2363L525.72 -80.0446C526.581 -78.9745 528.221 -78.8897 529.195 -79.865C530.08 -80.7513 531.54 -80.7747 532.455 -79.9174L621.254 3.27963C622.267 4.22855 623.883 4.20074 624.86 3.21759L663.378 -35.5269C664.262 -36.4164 664.332 -37.8019 663.54 -38.7699L644.574 -61.9692C643.7 -63.0375 643.887 -64.5893 644.989 -65.4352L645.988 -66.201C647.091 -67.0469 648.693 -66.8666 649.566 -65.7983L667.57 -43.7773C668.527 -42.606 670.332 -42.5214 671.402 -43.5977L700.271 -72.6373C701.247 -73.6189 702.86 -73.6484 703.873 -72.7033L709.378 -67.5693C710.391 -66.6241 710.422 -65.0623 709.446 -64.0807L678.902 -33.3568C678.018 -32.4673 677.949 -31.0818 678.74 -30.1138L767.542 78.5072C768.347 79.4914 769.786 79.7335 770.886 79.0695L773.165 77.6942C774.359 76.9736 775.93 77.327 776.674 78.4835L787.451 95.2356C788.195 96.3921 787.831 97.9138 786.637 98.6344L750.783 120.273C749.574 121.003 749.218 122.552 749.993 123.709L792.344 186.928C793.11 188.071 792.774 189.599 791.594 190.34L774.499 201.084C773.318 201.826 771.741 201.5 770.975 200.357L728.319 136.684C727.563 135.555 726.014 135.221 724.835 135.933L686.053 159.338C684.853 160.062 684.492 161.593 685.247 162.751L732.949 235.847C733.71 237.013 735.309 237.349 736.5 236.592L780.443 208.672C781.619 207.924 783.198 208.242 783.97 209.381L784.669 210.413C785.44 211.552 785.112 213.082 783.936 213.829L739.831 241.853C738.669 242.591 738.332 244.096 739.075 245.234L773.859 298.536C774.611 299.688 774.256 301.212 773.067 301.94L771.991 302.599C770.801 303.327 769.228 302.984 768.476 301.832L733.795 248.688C733.034 247.523 731.435 247.187 730.245 247.943L681.059 279.195C679.884 279.942 679.555 281.469 680.325 282.608L745.823 379.597C746.051 379.935 746.363 380.214 746.728 380.409C766.844 391.143 784.154 400.662 792.958 406.092C794.145 406.824 794.454 408.352 793.674 409.485L782.369 425.909C781.589 427.042 780.027 427.361 778.838 426.631C764.425 417.783 724.315 396.449 687.441 377.341C686.144 376.669 684.533 377.201 683.924 378.498L640.526 471.074C639.944 472.315 638.434 472.864 637.153 472.3L635.993 471.79C634.712 471.227 634.145 469.765 634.727 468.524L660.063 414.479C660.664 413.196 660.036 411.686 658.683 411.166L513.685 355.436C512.462 354.966 511.07 355.476 510.474 356.613L501.782 373.199C501.498 373.742 501.43 374.366 501.592 374.954L515.488 425.277C515.545 425.485 515.574 425.699 515.574 425.914V475.129C515.574 476.492 514.434 477.597 513.027 477.597H505.385C503.978 477.597 502.838 476.492 502.838 475.129V427.536C502.838 427.32 502.809 427.106 502.751 426.898L490.279 381.731C489.824 380.08 487.815 379.367 486.366 380.342L451.41 403.853C450.97 404.15 450.637 404.573 450.459 405.064L425.806 473.205C425.34 474.491 423.887 475.168 422.559 474.718L421.357 474.31C420.029 473.859 419.33 472.451 419.796 471.165L443.454 405.774C443.928 404.464 443.193 403.033 441.829 402.609L400.722 389.829C399.517 389.455 398.21 389.994 397.654 391.095L368.241 449.413C367.641 450.603 368.118 452.04 369.322 452.668L408.488 473.095C409.727 473.741 410.19 475.237 409.523 476.437L408.92 477.523C408.253 478.723 406.708 479.172 405.469 478.526L366.702 458.307C365.429 457.643 363.841 458.138 363.206 459.397L361.617 462.547C360.999 463.771 359.474 464.279 358.21 463.681L357.066 463.139C355.801 462.541 355.277 461.064 355.895 459.84L357.683 456.295C358.283 455.105 357.806 453.668 356.602 453.04L308.365 427.883C308.125 427.757 307.827 427.814 307.653 428.017L296.369 441.179C295.304 442.421 295.737 444.301 297.245 444.988L350.956 469.438C352.229 470.018 352.776 471.487 352.178 472.721L351.636 473.837C351.037 475.07 349.52 475.6 348.247 475.021L291.847 449.346C290.797 448.868 289.545 449.138 288.804 450.003L253.452 491.238C252.554 492.287 250.948 492.431 249.865 491.56L248.885 490.772C247.803 489.902 247.654 488.346 248.553 487.298L283.849 446.128C284.506 445.36 284.623 444.285 284.143 443.402L268.435 414.496ZM422.346 285.728C423.591 286.831 423.406 288.779 421.975 289.643L380.145 314.888C379.185 315.467 377.946 315.364 377.102 314.635L335.859 279.008C334.887 278.168 334.726 276.753 335.485 275.728L363.753 237.582C364.643 236.381 366.415 236.202 367.541 237.199L422.346 285.728ZM328.764 284.798C329.646 283.608 331.399 283.42 332.529 284.396L370.355 317.072C371.623 318.167 371.449 320.136 370.006 321.007L265.216 384.249C263.799 385.104 261.93 384.43 261.436 382.886L248.794 343.371C248.442 342.269 248.924 341.079 249.956 340.503L313.495 305.026C313.809 304.851 314.081 304.612 314.292 304.327L328.764 284.798ZM245.316 332.497C245.799 334.009 247.606 334.695 249.021 333.905L309.123 300.347C309.437 300.172 309.709 299.934 309.92 299.648L323.766 280.964C324.572 279.876 324.336 278.364 323.233 277.557L301.536 261.667C301.402 261.569 301.278 261.458 301.166 261.336L289.957 249.087C289.15 248.206 287.812 247.999 286.763 248.595L230.708 280.395C229.686 280.974 229.212 282.159 229.562 283.254L245.316 332.497ZM220.551 286.157C221.966 285.354 223.786 286.038 224.271 287.556L240 336.722C240.353 337.823 239.871 339.014 238.839 339.59L202.515 359.871C202.343 359.967 202.16 360.044 201.97 360.099L164.157 371.004C161.992 371.629 160.121 369.416 161.18 367.483L198.729 298.962C198.951 298.558 199.284 298.221 199.692 297.99L220.551 286.157ZM239.773 346.188C241.189 345.398 242.995 346.084 243.479 347.595L256.244 387.496C256.586 388.567 256.14 389.727 255.158 390.32L169.06 442.281C167.658 443.128 165.808 442.477 165.292 440.957L146.406 385.271C146.002 384.08 146.584 382.785 147.76 382.26L148.171 382.077C148.281 382.028 148.394 381.986 148.51 381.953L204.503 365.804C204.693 365.749 204.876 365.673 205.048 365.577L239.773 346.188ZM213.63 -77.1042C212.585 -78.0021 210.989 -77.9179 210.051 -76.9155L173.759 -38.1219C172.807 -37.1047 172.896 -35.5309 173.956 -34.6199L222.108 6.76865C223.147 7.6618 224.733 7.58383 225.674 6.59341L262.264 -31.9435C263.229 -32.9591 263.146 -34.5432 262.08 -35.459L213.63 -77.1042ZM169.64 -30.0826C168.595 -30.9805 166.999 -30.8963 166.062 -29.8939L139.492 -1.4931C138.55 -0.486511 138.626 1.06802 139.661 1.98456L186.89 43.8055C187.927 44.7231 189.534 44.6556 190.484 43.6547L217.913 14.767C218.877 13.7514 218.794 12.1673 217.729 11.2515L169.64 -30.0826ZM271.853 -23.8183C272.794 -24.8087 274.38 -24.8867 275.419 -23.9935L319.4 13.8098C320.466 14.7259 320.549 16.3106 319.584 17.3261L282.977 55.8491C282.036 56.8389 280.451 56.9165 279.412 56.0237L235.447 18.2342C234.382 17.3183 234.299 15.7343 235.263 14.7187L271.853 -23.8183ZM327.976 21.1805C326.937 20.2877 325.351 20.3653 324.41 21.3551L287.804 59.8781C286.839 60.8936 286.921 62.4783 287.987 63.3943L318.325 89.4706C319.354 90.3557 320.924 90.2882 321.868 89.3182L358.971 51.2209C359.957 50.2083 359.883 48.6065 358.808 47.6826L327.976 21.1805ZM227.502 22.8922C228.442 21.9018 230.029 21.8238 231.068 22.717L275.029 60.5035C276.095 61.4196 276.178 63.0042 275.213 64.0197L247.005 93.7043C246.054 94.7046 244.448 94.7717 243.412 93.8544L200.051 55.4591C199.01 54.5378 198.94 52.9731 199.895 51.968L227.502 22.8922ZM283.605 67.8741C282.566 66.9813 280.98 67.0589 280.039 68.0487L251.717 97.8542C250.762 98.8591 250.831 100.424 251.872 101.346L299.021 143.096C300.437 144.35 302.723 143.694 303.205 141.895L315.545 95.8587C315.556 95.8161 315.578 95.7769 315.61 95.7448C315.714 95.6373 315.707 95.4672 315.593 95.369L283.605 67.8741ZM385.677 -39.7344C384.631 -40.5409 383.12 -40.4279 382.215 -39.4754L332.175 13.1845C331.21 14.2 331.292 15.7846 332.358 16.7007L363.296 43.2931C364.326 44.1782 365.895 44.1107 366.84 43.1406L403.037 5.97241C403.126 5.8812 403.222 5.79663 403.324 5.71954L421.631 -8.10309C422.93 -9.08435 422.941 -10.9844 421.652 -11.9788L385.677 -39.7344ZM430.929 -15.1238C430.001 -14.4227 428.697 -14.4293 427.776 -15.1398L390.285 -44.0648C389.129 -44.9569 388.997 -46.6119 389.998 -47.6655L425.758 -85.2981C426.699 -86.2879 428.285 -86.3655 429.324 -85.4727L471.355 -49.345C472.546 -48.3212 472.486 -46.502 471.23 -45.5537L430.929 -15.1238ZM65.579 41.5071C65.0475 41.5071 64.6309 41.9491 64.679 42.4617L64.6887 42.5653C64.7145 42.8401 64.6926 43.1172 64.6238 43.3849L42.9706 127.636C42.6369 128.934 43.4327 130.254 44.7643 130.61L107.628 147.427C108.642 147.698 109.724 147.337 110.351 146.519L115.427 139.901C115.86 139.336 116.023 138.619 115.877 137.931L105.719 90.2749C105.693 90.1526 105.657 90.0324 105.612 89.9153L87.6794 43.1159C87.3088 42.1489 86.3563 41.5071 85.2913 41.5071H65.579ZM83.425 32.0133C84.0426 33.625 82.8118 35.339 81.0369 35.339H66.3367C65.0193 35.339 63.9191 34.366 63.7999 33.0951L57.7559 -31.2991C57.5452 -33.543 60.2946 -34.8638 62.0115 -33.3435L81.6952 -15.9138C82.2231 -15.4464 82.5237 -14.7856 82.5237 -14.0928V29.2181C82.5237 29.5112 82.5776 29.8019 82.6829 30.0766L83.425 32.0133ZM46.2014 230.177C45.316 231.332 43.6027 231.511 42.4831 230.566L16.292 208.466C15.3373 207.66 15.1384 206.298 15.8252 205.267L27.3039 188.046C27.4558 187.818 27.5679 187.567 27.6355 187.304L40.2007 138.413C40.5468 137.067 41.9702 136.262 43.3508 136.631L101.655 152.228C103.381 152.69 104.09 154.685 103.022 156.077L46.2014 230.177ZM448.486 398.31C448.434 398.346 448.365 398.296 448.385 398.237C448.396 398.203 448.377 398.167 448.341 398.156L404.249 384.448C402.771 383.988 402.057 382.366 402.738 381.015L414.214 358.262C414.337 358.019 414.499 357.798 414.696 357.606L487.212 286.882C487.957 286.156 489.087 285.95 490.052 286.366C499.683 290.514 510.74 295.325 522.598 300.533C523.919 301.113 524.473 302.643 523.817 303.896L488.703 370.901C488.512 371.265 488.23 371.578 487.884 371.811L448.486 398.31ZM670.382 368.541C672.66 369.711 674.971 370.9 677.307 372.104C678.494 372.716 678.985 374.116 678.429 375.301L664.807 404.358C664.246 405.556 662.812 406.117 661.548 405.631L517.016 350.08C515.623 349.545 515.006 347.965 515.684 346.67L535.518 308.823C536.136 307.644 537.599 307.144 538.841 307.693C586.933 328.972 642.82 354.39 670.382 368.541ZM274.588 407.664C273.455 408.347 273.06 409.762 273.681 410.907L287.563 436.453C288.409 438.009 290.617 438.233 291.777 436.88L302.851 423.963C303.583 423.109 303.636 421.887 302.981 420.977L289.096 401.666C288.321 400.588 286.81 400.288 285.659 400.982L274.588 407.664ZM136.441 350.449C136.764 352.831 140.054 353.407 141.217 351.285L159.434 318.043C159.684 317.587 159.78 317.067 159.708 316.555L149.901 246.473C149.715 245.141 148.462 244.199 147.083 244.354L125.653 246.764C124.249 246.922 123.246 248.157 123.419 249.515L132.146 318.297C132.148 318.311 132.138 318.323 132.124 318.325C132.11 318.326 132.1 318.339 132.102 318.353L136.441 350.449ZM50.87 244.779C49.5394 246.514 50.9921 248.95 53.2088 248.701L107.129 242.637C108.533 242.479 109.536 241.244 109.364 239.885L106.046 213.735C105.878 212.418 104.665 211.464 103.299 211.578L75.633 213.881C74.9062 213.941 74.241 214.301 73.8061 214.868L50.87 244.779ZM41.4902 257.011C41.9094 256.464 42.5432 256.11 43.2415 256.031L107.94 248.756C109.331 248.599 110.592 249.559 110.762 250.905L116.163 293.463C116.385 295.218 114.684 296.624 112.929 296.134L45.7642 277.39L32.0618 275.389C30.1611 275.111 29.2505 272.973 30.3966 271.478L41.4902 257.011ZM670.879 -25.286C671.949 -26.3624 673.753 -26.2777 674.711 -25.1063L761.745 81.3528C762.689 82.5071 762.386 84.1999 761.095 84.9785L734.695 100.912C733.728 101.495 732.48 101.386 731.636 100.645L634.317 15.1541C633.253 14.2192 633.197 12.6175 634.193 11.6152L670.879 -25.286ZM359.222 447.4C360.495 448.065 362.083 447.57 362.718 446.311L392.858 386.554C392.881 386.508 392.874 386.453 392.839 386.414C392.799 386.368 392.731 386.356 392.677 386.384L321.301 423.27C319.508 424.197 319.503 426.686 321.293 427.619L359.222 447.4ZM309.847 419.732C310.584 420.758 311.998 421.087 313.136 420.499L385.724 382.986C387.161 382.243 387.519 380.402 386.458 379.204L365.353 355.355C364.534 354.429 363.14 354.222 362.071 354.866L295.401 395.103C294.163 395.85 293.824 397.448 294.657 398.607L309.847 419.732ZM371.913 348.927C370.589 349.726 370.311 351.479 371.326 352.626L393.419 377.591C394.611 378.938 396.838 378.662 397.642 377.068L408.954 354.639C409.077 354.396 409.239 354.175 409.436 353.983L481.863 283.346C482.033 283.18 481.978 282.9 481.757 282.806C481.653 282.761 481.533 282.769 481.436 282.828L371.913 348.927ZM679.824 165.986C679.076 164.839 677.512 164.493 676.324 165.21L625.051 196.154C623.838 196.886 623.484 198.44 624.266 199.598L674.05 273.317C674.821 274.458 676.401 274.777 677.579 274.029L726.914 242.683C728.076 241.945 728.412 240.44 727.67 239.302L679.824 165.986ZM521.898 -52.5269C522.899 -53.2829 524.323 -53.2094 525.235 -52.3544L603.594 21.0604C604.603 22.0062 604.632 23.5651 603.658 24.5451L588.424 39.8687C587.476 40.8221 585.92 40.8813 584.898 40.0027L500.418 -32.6111C499.227 -33.6348 499.287 -35.454 500.543 -36.4023L521.898 -52.5269ZM616.528 32.8359C615.508 31.9397 613.937 31.9912 612.981 32.9521L598.102 47.9191C597.098 48.929 597.163 50.5453 598.246 51.4759L686.898 127.676C687.742 128.401 688.978 128.502 689.936 127.924L707.723 117.189C709.159 116.323 709.34 114.368 708.088 113.268L616.528 32.8359ZM491.349 -29.4604C492.318 -30.1918 493.687 -30.1496 494.606 -29.3599L580.322 44.3163C581.405 45.2469 581.47 46.8632 580.466 47.8731L551.249 77.2628C550.337 78.1799 548.855 78.2745 547.826 77.4813L452.367 3.83292C451.078 2.83853 451.089 0.938507 452.388 -0.0427551L491.349 -29.4604ZM593.67 55.7895C592.648 54.9109 591.092 54.9701 590.144 55.9235L561.588 84.6484C560.546 85.6958 560.661 87.3837 561.835 88.2896L645.477 152.821C646.321 153.472 647.496 153.537 648.412 152.985L679.79 134.048C681.235 133.176 681.407 131.203 680.134 130.108L593.67 55.7895ZM443.09 6.978C444.019 6.27686 445.322 6.28348 446.243 6.99402L543.015 81.6548C544.189 82.5607 544.304 84.2486 543.262 85.296L484.552 144.352C483.604 145.306 482.048 145.365 481.026 144.486L386.17 62.9542C385.095 62.0302 385.022 60.4284 386.008 59.4158L420.233 24.2725C420.322 24.1813 420.418 24.0968 420.52 24.0197L443.09 6.978ZM557.024 92.463C555.996 91.6699 554.513 91.7645 553.602 92.6815L494.23 152.403C493.226 153.413 493.291 155.029 494.374 155.96L554.459 207.605C555.303 208.33 556.539 208.431 557.497 207.853L638.089 159.215C639.582 158.314 639.705 156.253 638.329 155.191L557.024 92.463ZM378.139 67.4961C379.083 66.5261 380.653 66.4586 381.682 67.3437L476.45 148.8C477.533 149.731 477.598 151.347 476.594 152.357L439.076 190.096C438.128 191.05 436.572 191.109 435.55 190.23L341.199 109.132C340.124 108.208 340.05 106.606 341.036 105.593L378.139 67.4961ZM489.798 160.273C488.776 159.395 487.22 159.454 486.272 160.407L448.754 198.147C447.75 199.157 447.815 200.773 448.898 201.703L496.476 242.598C497.32 243.324 498.556 243.425 499.514 242.847L547.351 213.977C548.796 213.105 548.968 211.132 547.694 210.037L489.798 160.273ZM336.005 117.712C336.483 115.929 338.738 115.264 340.161 116.487L430.974 194.544C432.057 195.474 432.122 197.091 431.118 198.101L400.078 229.324C399.12 230.287 397.543 230.336 396.524 229.433L324.544 165.696C323.848 165.08 323.56 164.14 323.798 163.255L323.887 162.922L324.217 162.125C324.231 162.092 324.215 162.056 324.181 162.043C324.151 162.031 324.134 161.999 324.143 161.968L336.005 117.712ZM444.322 206.017C443.3 205.138 441.744 205.198 440.796 206.151L409.573 237.558C408.579 238.558 408.632 240.154 409.689 241.091L445.85 273.111C446.693 273.857 447.946 273.969 448.916 273.384L489.368 248.97C490.813 248.098 490.985 246.125 489.712 245.031L444.322 206.017ZM120.708 160.596C120.263 158.509 117.48 157.913 116.168 159.624L82.9337 202.965C81.6247 204.672 83.0095 207.076 85.1968 206.894L106.198 205.146C106.452 205.125 106.686 205.004 106.845 204.811L124.608 183.306C125.081 182.732 125.267 181.985 125.114 181.266L120.708 160.596ZM129.965 143.014C129.819 142.325 129.982 141.609 130.415 141.044L180.714 75.4491C181.614 74.2756 183.364 74.1129 184.478 75.0993L203.945 92.3372C204.996 93.2678 205.056 94.8523 204.077 95.8541L181.296 119.167C181.152 119.315 181.084 119.517 181.111 119.719C181.137 119.919 181.07 120.12 180.928 120.267L156.572 145.542C156.456 145.663 156.352 145.795 156.263 145.936L141.355 169.495C141.16 169.803 140.832 170.01 140.462 170.058C139.782 170.147 139.306 170.754 139.398 171.412L139.454 171.812C139.505 172.176 139.424 172.545 139.227 172.857C138.449 174.087 136.519 173.76 136.218 172.348L129.965 143.014ZM171.249 63.3851C172.214 64.2391 172.355 65.6612 171.576 66.6772L129.674 121.321C128.362 123.031 125.579 122.435 125.134 120.349L117.996 86.862C117.97 86.7397 117.935 86.6195 117.89 86.5025L95.4197 27.8613C95.3145 27.5865 95.2606 27.2958 95.2606 27.0028V1.69672C95.2606 -0.448486 97.8921 -1.57172 99.5267 -0.124237L171.249 63.3851ZM148.362 235.469C148.553 236.838 147.547 238.092 146.131 238.251L124.842 240.645C123.451 240.802 122.191 239.841 122.02 238.495L118.481 210.607C118.472 210.532 118.494 210.456 118.542 210.397C118.592 210.337 118.665 210.299 118.744 210.293L142.122 208.347C143.475 208.234 144.681 209.17 144.864 210.474L148.362 235.469ZM143.323 199.458C143.518 200.856 142.467 202.127 141.016 202.248L130.029 203.162C127.798 203.348 126.423 200.856 127.821 199.163L138.872 185.784C138.978 185.656 139.019 185.489 138.985 185.328C138.956 185.191 138.981 185.049 139.057 184.929L139.18 184.735C139.751 183.832 141.177 184.123 141.323 185.172L143.323 199.458ZM59.2204 310.274C59.095 308.563 60.7652 307.253 62.4667 307.728L105.037 319.608C106.011 319.88 106.726 320.686 106.858 321.659L112.687 364.773C112.708 364.926 112.743 365.076 112.793 365.222L113.697 367.889C114.101 369.08 113.519 370.375 112.343 370.9L68.5555 390.44C66.9382 391.161 65.0748 390.094 64.9486 388.374L59.2204 310.274ZM671.474 285.285C672.652 284.537 674.233 284.856 675.003 285.997L728.755 365.592C730.205 367.739 727.726 370.343 725.398 369.119C710.835 361.466 695.872 353.704 682.313 346.742C668.563 339.682 648.08 329.954 625.085 319.354C623.293 318.529 623.117 316.124 624.772 315.064L646.578 301.103L671.474 285.285ZM634.73 296.631C636.654 297.357 636.933 299.884 635.209 300.988L615.47 313.625C614.727 314.101 613.785 314.168 612.98 313.8C578.848 298.202 541.026 281.444 512.067 268.867C510.205 268.059 510.036 265.567 511.768 264.522L525.271 256.372C525.953 255.961 526.795 255.885 527.543 256.168L634.73 296.631ZM646.929 293.503C646.24 293.941 645.375 294.029 644.607 293.739L537.84 253.435C535.886 252.697 535.638 250.116 537.418 249.042L615.32 202.027C616.495 201.317 618.04 201.648 618.799 202.77L668.729 276.706C669.498 277.845 669.169 279.372 667.994 280.119L646.929 293.503ZM208.838 99.9548C209.793 98.9771 211.381 98.9216 212.407 99.8298L291.703 170.045C292.487 170.739 292.744 171.831 292.348 172.785L268.798 229.594C268.588 230.102 268.209 230.527 267.721 230.804L210.047 263.523C208.47 264.417 206.463 263.461 206.232 261.706L187.858 122.203C187.851 122.154 187.868 122.105 187.902 122.069C187.967 122.002 187.963 121.898 187.894 121.835L187.857 121.802C187.819 121.767 187.794 121.721 187.788 121.672L187.785 121.649C187.774 121.566 187.802 121.483 187.861 121.422L208.838 99.9548ZM359.372 232.915C360.125 231.899 359.974 230.499 359.022 229.655L315.798 191.381C314.485 190.219 312.378 190.684 311.715 192.283L291.965 239.927C291.605 240.794 291.783 241.783 292.422 242.482L305.512 256.786C305.624 256.908 305.747 257.019 305.882 257.117L326.847 272.47C327.989 273.307 329.618 273.067 330.453 271.941L359.372 232.915ZM168.648 301.228C167.488 303.345 164.207 302.778 163.874 300.402L156.241 245.855C156.05 244.487 157.055 243.232 158.472 243.073L194.289 239.045C195.675 238.889 196.932 239.843 197.109 241.184L200.533 267.181C200.663 268.162 200.175 269.123 199.294 269.623L180.58 280.239C180.172 280.47 179.839 280.807 179.618 281.211L168.648 301.228ZM178.497 131.829C179.969 130.302 182.613 131.128 182.886 133.201L195.658 230.17C195.838 231.532 194.834 232.774 193.425 232.933L157.52 236.97C156.141 237.126 154.888 236.183 154.702 234.851L146.27 174.595C146.191 174.031 146.316 173.459 146.622 172.974L161.357 149.69C161.446 149.549 161.55 149.417 161.666 149.296L178.497 131.829Z" fill="white"/>
</g>
</g>
<defs>
<clipPath id="clip0_5235_123921">
<rect width="772" height="140" fill="white" transform="translate(772 140) rotate(-180)"/>
</clipPath>
<clipPath id="clip1_5235_123921">
<rect width="784" height="544" fill="white" transform="translate(772 467) rotate(-180)"/>
</clipPath>
</defs>
</svg>
